<?xml version="1.0" encoding="UTF-8" standalone="no"?>
<!-- Created with Inkscape (http://www.inkscape.org/) -->

<svg
   xmlns:dc="http://purl.org/dc/elements/1.1/"
   xmlns:cc="http://creativecommons.org/ns#"
   xmlns:rdf="http://www.w3.org/1999/02/22-rdf-syntax-ns#"
   xmlns:svg="http://www.w3.org/2000/svg"
   xmlns="http://www.w3.org/2000/svg"
   xmlns:sodipodi="http://sodipodi.sourceforge.net/DTD/sodipodi-0.dtd"
   xmlns:inkscape="http://www.inkscape.org/namespaces/inkscape"
   width="215.86488mm"
   height="288.13562mm"
   viewBox="0 0 764.87557 1020.953"
   id="svg4730"
   version="1.1"
   inkscape:version="0.91 r13725"
   sodipodi:docname="microscope.svg">
  <title
     id="title4744">Microscope</title>
  <defs
     id="defs4732" />
  <sodipodi:namedview
     id="base"
     pagecolor="#ffffff"
     bordercolor="#666666"
     borderopacity="1.0"
     inkscape:pageopacity="0.0"
     inkscape:pageshadow="2"
     inkscape:zoom="256"
     inkscape:cx="-1799.6936"
     inkscape:cy="2170.8163"
     inkscape:document-units="px"
     inkscape:current-layer="layer1"
     showgrid="false"
     fit-margin-top="0"
     fit-margin-left="0"
     fit-margin-right="0"
     fit-margin-bottom="0"
     inkscape:window-width="1600"
     inkscape:window-height="847"
     inkscape:window-x="-8"
     inkscape:window-y="-8"
     inkscape:window-maximized="1" />
  <metadata
     id="metadata4735">
    <rdf:RDF>
      <cc:Work
         rdf:about="">
        <dc:format>image/svg+xml</dc:format>
        <dc:type
           rdf:resource="http://purl.org/dc/dcmitype/StillImage" />
        <dc:title>Microscope</dc:title>
      </cc:Work>
    </rdf:RDF>
  </metadata>
  <g
     inkscape:label="Layer 1"
     inkscape:groupmode="layer"
     id="layer1"
     transform="translate(8.1520714,-10.457137)">
    <path
       style="fill:#84be0e;fill-opacity:1;stroke:none;stroke-opacity:0"
       d="m 57.371729,968.17207 63.224401,-63.2381 63.647,0 63.647,0 -0.402,-48.94544 -0.4021,-48.94547 -21.1943,-9.66418 c -11.6568,-5.31531 -25.9761,-12.4327 -31.8207,-15.81646 l -10.6264,-6.15226 -95.798401,0 -95.7983004,0 0,-31.23809 0,-31.2381 191.8904014,0 191.89032,0 0.92383,-8.7619 c 3.50264,-33.22042 7.83008,-50.79715 17.68285,-71.82242 18.28242,-39.01363 53.86858,-74.85452 91.65847,-92.31453 21.98785,-10.15901 42.16487,-15.23724 73.19224,-18.42128 l 8.7619,-0.89916 -0.016,-8.65227 c -0.0228,-12.30693 -6.32801,-41.56535 -12.04446,-55.89035 -9.89701,-24.80116 -24.97018,-46.74034 -46.14824,-67.1693 -13.52571,-13.04728 -35.03795,-29.59261 -38.47631,-29.59261 -0.89036,0 -22.98805,21.42858 -49.10598,47.61905 l -47.48715,47.61905 -32.12637,64.38096 -32.12638,64.38095 -62.86692,0 -62.8669,0 -32.3676,-32.39395 -32.3677,-32.39393 0,-62.47773 0,-62.47769 63.9777,-31.95987 63.9778,-31.95985 128.39981,-128.40658 128.39984,-128.406593 31.9901,0 31.99008,0 31.265,-31.23842 31.26501,-31.23841 30.84369,30.87124 30.8437,30.87124 -31.23826,31.210383 -31.23826,31.21038 0,32.02754 0,32.02755 -32,31.97279 c -17.6,17.58504 -31.9648,32.66462 -31.92179,33.5102 0.043,0.84558 4.88544,5.30885 10.76093,9.91837 24.24399,19.02027 53.36064,52.79214 71.28255,82.67935 21.5466,35.93189 37.53866,82.48942 42.78471,124.55874 1.85498,14.87552 2.01745,59.77191 0.27219,75.21726 l -1.18141,10.45533 10.76332,11.43777 c 30.78869,32.718 48.77082,68.03557 54.08152,106.21815 2.30647,16.58289 2.01754,43.37505 -0.6448,59.79016 -11.45938,70.65497 -63.0551,131.51094 -130.29246,153.67695 -7.12381,2.34848 -13.60381,4.84451 -14.4,5.54671 -0.79689,0.70281 3.3161,1.27672 9.14974,1.27672 l 10.59737,0 63.22432,63.2381 63.22432,63.23803 -380.93861,0 -380.9386114,0 z M 585.77569,774.11531 c 34.43469,-10.71729 53.61636,-47.10199 42.98235,-81.53093 -5.18818,-16.79736 -16.6189,-29.50816 -34.71817,-38.60612 -27.72049,-13.93427 -59.55052,-5.44057 -79.99801,21.3471 -15.82808,20.73591 -15.3047,53.07339 1.22236,75.5238 16.1877,21.98942 44.5474,31.34706 70.51147,23.26615 z"
       id="path4719"
       inkscape:connector-curvature="0"
       sodipodi:nodetypes="ccccccsscccccccsssscssssscccccccccccccccccccccccscsssscssssssccccccssssss" />
  </g>
</svg>
