<?xml version="1.0" encoding="UTF-8" standalone="no"?>
<!-- Created with Inkscape (http://www.inkscape.org/) -->

<svg
   xmlns:dc="http://purl.org/dc/elements/1.1/"
   xmlns:cc="http://creativecommons.org/ns#"
   xmlns:rdf="http://www.w3.org/1999/02/22-rdf-syntax-ns#"
   xmlns:svg="http://www.w3.org/2000/svg"
   xmlns="http://www.w3.org/2000/svg"
   xmlns:sodipodi="http://sodipodi.sourceforge.net/DTD/sodipodi-0.dtd"
   xmlns:inkscape="http://www.inkscape.org/namespaces/inkscape"
   width="125"
   height="125"
   id="svg3755"
   version="1.1"
   inkscape:version="0.48.4 r9939"
   sodipodi:docname="pattern.svg">
  <defs
     id="defs3757" />
  <sodipodi:namedview
     id="base"
     pagecolor="#ffffff"
     bordercolor="#666666"
     borderopacity="1.0"
     inkscape:pageopacity="0.0"
     inkscape:pageshadow="2"
     inkscape:zoom="1.979899"
     inkscape:cx="29.53799"
     inkscape:cy="-1.7958393"
     inkscape:document-units="px"
     inkscape:current-layer="layer1"
     showgrid="false"
     fit-margin-top="0"
     fit-margin-left="0"
     fit-margin-right="0"
     fit-margin-bottom="0"
     inkscape:window-width="1920"
     inkscape:window-height="1138"
     inkscape:window-x="-8"
     inkscape:window-y="-8"
     inkscape:window-maximized="1" />
  <metadata
     id="metadata3760">
    <rdf:RDF>
      <cc:Work
         rdf:about="">
        <dc:format>image/svg+xml</dc:format>
        <dc:type
           rdf:resource="http://purl.org/dc/dcmitype/StillImage" />
        <dc:title></dc:title>
      </cc:Work>
    </rdf:RDF>
  </metadata>
  <g
     inkscape:label="Layer 1"
     inkscape:groupmode="layer"
     id="layer1"
     transform="translate(-254.41115,-456.01941)">
    <g
       id="g4410"
       transform="translate(-58.083773,-14.142136)"
       style="fill:#84be0e;fill-opacity:1">
      <path
         transform="matrix(0.98994949,0,0,1.039447,3.6295347,-19.417091)"
         d="m 382.34275,482.13107 c 0,5.57892 -4.74874,10.10153 -10.6066,10.10153 -5.85787,0 -10.60661,-4.52261 -10.60661,-10.10153 0,-5.57892 4.74874,-10.10152 10.60661,-10.10152 5.85786,0 10.6066,4.5226 10.6066,10.10152 z"
         sodipodi:ry="10.101525"
         sodipodi:rx="10.606602"
         sodipodi:cy="482.13107"
         sodipodi:cx="371.73615"
         id="path3774"
         style="fill:#84be0e;fill-opacity:1;fill-rule:nonzero;stroke:none"
         sodipodi:type="arc" />
      <path
         transform="matrix(0.98994949,0,0,1.039447,-44.500007,57.752966)"
         d="m 382.34275,482.13107 c 0,5.57892 -4.74874,10.10153 -10.6066,10.10153 -5.85787,0 -10.60661,-4.52261 -10.60661,-10.10153 0,-5.57892 4.74874,-10.10152 10.60661,-10.10152 5.85786,0 10.6066,4.5226 10.6066,10.10152 z"
         sodipodi:ry="10.101525"
         sodipodi:rx="10.606602"
         sodipodi:cy="482.13107"
         sodipodi:cx="371.73615"
         id="path3774-7"
         style="fill:#84be0e;fill-opacity:1;fill-rule:nonzero;stroke:none"
         sodipodi:type="arc" />
      <path
         transform="matrix(0.98994949,0,0,1.039447,-44.500007,3.7098056)"
         d="m 382.34275,482.13107 c 0,5.57892 -4.74874,10.10153 -10.6066,10.10153 -5.85787,0 -10.60661,-4.52261 -10.60661,-10.10153 0,-5.57892 4.74874,-10.10152 10.60661,-10.10152 5.85786,0 10.6066,4.5226 10.6066,10.10152 z"
         sodipodi:ry="10.101525"
         sodipodi:rx="10.606602"
         sodipodi:cy="482.13107"
         sodipodi:cx="371.73615"
         id="path3774-7-4"
         style="fill:#84be0e;fill-opacity:1;fill-rule:nonzero;stroke:none"
         sodipodi:type="arc" />
      <path
         transform="matrix(0.98994949,0,0,1.039447,5.7564348,29.468693)"
         d="m 382.34275,482.13107 c 0,5.57892 -4.74874,10.10153 -10.6066,10.10153 -5.85787,0 -10.60661,-4.52261 -10.60661,-10.10153 0,-5.57892 4.74874,-10.10152 10.60661,-10.10152 5.85786,0 10.6066,4.5226 10.6066,10.10152 z"
         sodipodi:ry="10.101525"
         sodipodi:rx="10.606602"
         sodipodi:cy="482.13107"
         sodipodi:cx="371.73615"
         id="path3774-7-4-0"
         style="fill:#84be0e;fill-opacity:1;fill-rule:nonzero;stroke:none"
         sodipodi:type="arc" />
      <path
         transform="matrix(0.98994949,0,0,1.039447,6.2615111,82.501704)"
         d="m 382.34275,482.13107 c 0,5.57892 -4.74874,10.10153 -10.6066,10.10153 -5.85787,0 -10.60661,-4.52261 -10.60661,-10.10153 0,-5.57892 4.74874,-10.10152 10.60661,-10.10152 5.85786,0 10.6066,4.5226 10.6066,10.10152 z"
         sodipodi:ry="10.101525"
         sodipodi:rx="10.606602"
         sodipodi:cy="482.13107"
         sodipodi:cx="371.73615"
         id="path3774-7-4-0-9"
         style="fill:#84be0e;fill-opacity:1;fill-rule:nonzero;stroke:none"
         sodipodi:type="arc" />
      <path
         transform="matrix(0.98994949,0,0,1.039447,58.284367,58.763119)"
         d="m 382.34275,482.13107 c 0,5.57892 -4.74874,10.10153 -10.6066,10.10153 -5.85787,0 -10.60661,-4.52261 -10.60661,-10.10153 0,-5.57892 4.74874,-10.10152 10.60661,-10.10152 5.85786,0 10.6066,4.5226 10.6066,10.10152 z"
         sodipodi:ry="10.101525"
         sodipodi:rx="10.606602"
         sodipodi:cy="482.13107"
         sodipodi:cx="371.73615"
         id="path3774-7-4-0-9-4"
         style="fill:#84be0e;fill-opacity:1;fill-rule:nonzero;stroke:none"
         sodipodi:type="arc" />
      <path
         transform="matrix(0.98994949,0,0,1.039447,58.789443,3.2047289)"
         d="m 382.34275,482.13107 c 0,5.57892 -4.74874,10.10153 -10.6066,10.10153 -5.85787,0 -10.60661,-4.52261 -10.60661,-10.10153 0,-5.57892 4.74874,-10.10152 10.60661,-10.10152 5.85786,0 10.6066,4.5226 10.6066,10.10152 z"
         sodipodi:ry="10.101525"
         sodipodi:rx="10.606602"
         sodipodi:cy="482.13107"
         sodipodi:cx="371.73615"
         id="path3774-7-4-0-9-4-8"
         style="fill:#84be0e;fill-opacity:1;fill-rule:nonzero;stroke:none"
         sodipodi:type="arc" />
    </g>
  </g>
</svg>
