<?xml version="1.0" encoding="UTF-8" standalone="no"?>
<!-- Created with Inkscape (http://www.inkscape.org/) -->

<svg
   xmlns:dc="http://purl.org/dc/elements/1.1/"
   xmlns:cc="http://creativecommons.org/ns#"
   xmlns:rdf="http://www.w3.org/1999/02/22-rdf-syntax-ns#"
   xmlns:svg="http://www.w3.org/2000/svg"
   xmlns="http://www.w3.org/2000/svg"
   version="1.1"
   width="32"
   height="32"
   viewBox="0 0 32 32"
   id="svg2"
   xml:space="preserve"><metadata
   id="metadata12"><rdf:RDF><cc:Work
       rdf:about=""><dc:format>image/svg+xml</dc:format><dc:type
         rdf:resource="http://purl.org/dc/dcmitype/StillImage" /><dc:title></dc:title></cc:Work></rdf:RDF></metadata><defs
   id="defs10">
	
</defs>
<g
   id="Layer_1">
</g>
<path
   d="m 28,24 c -0.973,0 -1.832,0.391 -2.523,0.965 L 19.379,20.613 C 19.766,19.816 20,18.941 20,18 20,16.707 19.578,15.512 18.883,14.535 L 26.016,7.398 C 26.609,7.746 27.262,8 28,8 30.211,8 32,6.211 32,4 32,1.789 30.211,0 28,0 c -2.211,0 -4,1.789 -4,4 0,0.738 0.254,1.391 0.602,1.984 l -7.133,7.137 C 16.484,12.418 15.297,12 14,12 11.711,12 9.742,13.301 8.73,15.191 L 3.914,13.582 C 3.719,12.684 2.957,12 2,12 c -1.105,0 -2,0.895 -2,2 0,1.105 0.895,2 2,2 0.504,0 0.953,-0.203 1.305,-0.512 l 4.789,1.598 C 8.047,17.387 8,17.688 8,18 c 0,3.312 2.688,6 6,6 1.648,0 3.145,-0.668 4.23,-1.746 l 6.059,4.324 C 24.117,27.023 24,27.496 24,28 c 0,2.207 1.789,4 4,4 2.211,0 4,-1.793 4,-4 0,-2.207 -1.789,-4 -4,-4 z"
   id="path6"
   style="fill:#84be0e;fill-opacity:1" />
</svg>